# xmcd
#
# Track frame offsets:
#	150
#	16377
#	33380
#	52550
#	65677
#	83670
#	95177
#	113585
#	128727
#	145600
#	163487
#	182215
#	199130
#	213520
#	231745
#
# Disc length: 3287 seconds
#
# Revision: 2
# Processed by: cddbd v1.4PL0 Copyright (c) Steve Scherf et al.
# Submitted via: EasyCDDAExtractor 4.6.9.1
#
DISCID=d60cd50f
DTITLE=Vince Gill - Souvenirs
DYEAR=1995
DGENRE=Country
TTITLE0=Never Alone
TTITLE1=Never Knew Lonely
TTITLE2=When I Call Your Name
TTITLE3=Liza Jane
TTITLE4=Look At Us
TTITLE5=Take Your Memory With You
TTITLE6=Pocket Full Of Gold
TTITLE7=The Heart Won't Lie (w/ Reba McEntire)
TTITLE8=Don't Let Our Love Start Slippin' Away
TTITLE9=I Still Believe In You
TTITLE10=No Future In The Past
TTITLE11=Tryin' To Get Over You
TTITLE12=One More Last Chance
TTITLE13=I Can't Tell You Why
TTITLE14=I Will Always Love You (w/ Dolly Parton)
EXTD=
EXTT0=
EXTT1=
EXTT2=
EXTT3=
EXTT4=
EXTT5=
EXTT6=
EXTT7=
EXTT8=
EXTT9=
EXTT10=
EXTT11=
EXTT12=
EXTT13=
EXTT14=
PLAYORDER=
